<?xml version="1.0" encoding="UTF-8" standalone="no"?>
<!-- Created with Inkscape (http://www.inkscape.org/) -->

<svg
   xmlns:dc="http://purl.org/dc/elements/1.1/"
   xmlns:cc="http://creativecommons.org/ns#"
   xmlns:rdf="http://www.w3.org/1999/02/22-rdf-syntax-ns#"
   xmlns:svg="http://www.w3.org/2000/svg"
   xmlns="http://www.w3.org/2000/svg"
   xmlns:sodipodi="http://sodipodi.sourceforge.net/DTD/sodipodi-0.dtd"
   xmlns:inkscape="http://www.inkscape.org/namespaces/inkscape"
   version="1.1"
   id="svg10"
   width="831.12653"
   height="160.60376"
   viewBox="0 0 831.12653 160.60376"
   sodipodi:docname="kolejkaBlack.svg"
   inkscape:version="0.92.5 (2060ec1f9f, 2020-04-08)">
  <metadata
     id="metadata16">
    <rdf:RDF>
      <cc:Work
         rdf:about="">
        <dc:format>image/svg+xml</dc:format>
        <dc:type
           rdf:resource="http://purl.org/dc/dcmitype/StillImage" />
        <dc:title></dc:title>
      </cc:Work>
    </rdf:RDF>
  </metadata>
  <defs
     id="defs14" />
  <sodipodi:namedview
     pagecolor="#ffffff"
     bordercolor="#666666"
     borderopacity="1"
     objecttolerance="10"
     gridtolerance="10"
     guidetolerance="10"
     inkscape:pageopacity="0"
     inkscape:pageshadow="2"
     inkscape:window-width="1598"
     inkscape:window-height="970"
     id="namedview12"
     showgrid="false"
     inkscape:zoom="1.2578261"
     inkscape:cx="230.35935"
     inkscape:cy="124.51725"
     inkscape:window-x="362"
     inkscape:window-y="65"
     inkscape:window-maximized="0"
     inkscape:current-layer="svg10"
     fit-margin-top="0"
     fit-margin-left="0"
     fit-margin-right="0"
     fit-margin-bottom="0" />
  <path
     style="fill:#000000;fill-opacity:1"
     d="m 521.24464,158.91396 c 0,-0.9294 0.52093,-4.21191 1.15762,-7.29447 l 1.15763,-5.60467 4.84003,0.99147 c 4.24965,0.87053 5.17576,0.74085 7.59238,-1.06317 l 2.75234,-2.05464 0.26085,-42.14236 0.26086,-42.142362 h 7.98914 7.98915 v 42.875002 c 0,23.58125 -0.29409,44.34546 -0.65354,46.14268 -0.36875,1.84376 -2.47285,5.16642 -4.82858,7.625 l -4.17505,4.35732 h -12.17141 c -10.75999,0 -12.17142,-0.19595 -12.17142,-1.6898 z M 67.425826,140.85376 c 0.295707,-14.60857 0.511617,-16.16129 2.979219,-21.42515 3.284721,-7.00692 9.762225,-14.16908 16.075682,-17.77485 l 4.776949,-2.728232 -2.112928,-1.910883 c -2.868061,-2.593811 -5.516063,-8.043649 -6.354032,-13.077193 -0.677594,-4.070201 -0.801513,-4.18115 -5.372069,-4.809762 -8.63645,-1.187815 -19.166675,2.604524 -25.370394,9.136854 -5.674244,5.974809 -7.228954,11.496614 -7.627194,27.089216 l -0.363949,14.25 h -5.513087 -5.513088 l 0.433658,-15.25 c 0.362604,-12.7513 0.801634,-16.192472 2.679481,-21.002087 2.984839,-7.644879 8.656681,-14.629707 15.230533,-18.756279 2.953518,-1.853997 5.527706,-3.480743 5.720419,-3.61499 0.192713,-0.134248 -0.989167,-1.961412 -2.626398,-4.060366 -3.148432,-4.036338 -5.22399,-9.141355 -5.22399,-12.848872 0,-6.237451 -19.165275,-3.908426 -28.033622,3.406736 -5.841196,4.81818 -9.246636,12.253717 -9.772489,21.337544 l -0.450859,7.788312 H 5.4938335 0 l 0.4256906,-8.75 C 0.7513149,71.160606 1.4688318,67.759622 3.478066,63.385693 6.5610675,56.674265 13.886201,48.484164 20.021748,44.888493 l 4.345923,-2.54688 -2.508468,-2.618927 C 16.398158,34.021167 14.53895,22.629044 17.79532,14.821639 19.717445,10.21319 24.624254,4.9973894 29.244638,2.6513323 45.139462,-5.4194596 64.344026,5.9115958 64.509305,23.45815 l 0.05487,5.824729 7.314653,-0.469426 c 6.439142,-0.413239 7.964074,-0.151694 12.740381,2.185135 8.501247,4.159272 14.295369,13.783015 13.475339,22.38185 l -0.35534,3.726079 8.578842,-0.0014 c 7.80448,-0.0013 9.02092,0.271802 13.47628,3.025056 8.57685,5.300174 12.96478,15.587209 11.03545,25.871412 -0.36218,1.930617 -2.18977,5.785648 -4.06131,8.566735 l -3.40278,5.056528 4.03469,2.058342 c 6.13066,3.12763 12.64194,10.26946 16.15537,17.71984 3.03859,6.44345 3.17417,7.28619 3.53125,21.95071 l 0.37134,15.25 h -5.51308 -5.51309 l -0.36845,-14.25 c -0.33971,-13.13863 -0.57788,-14.65071 -3.05378,-19.38785 -9.10425,-17.41918 -33.425021,-20.9055 -46.960583,-6.73168 -6.560654,6.87001 -7.757747,10.96446 -7.782752,26.61953 l -0.02197,13.75002 H 72.675826 67.107014 Z M 113.33852,92.055209 c 9.06128,-4.685768 8.93403,-18.282935 -0.21537,-23.014277 -7.25825,-3.753384 -16.580921,0.499833 -19.032709,8.683152 -0.953653,3.18301 -0.80473,4.333072 1.059867,8.184806 3.40361,7.030926 11.310542,9.702904 18.188212,6.146319 z M 78.526757,64.232637 c 7.221252,-3.076936 10.2517,-10.02217 7.376051,-16.904567 -3.983316,-9.533417 -18.232427,-10.390675 -23.698654,-1.425763 -3.740243,6.134203 -1.381683,14.39687 5.102148,17.874186 4.070145,2.182842 6.898245,2.297813 11.220455,0.456144 z M 47.277371,35.086831 c 9.710154,-5.021316 7.508753,-20.391648 -3.356264,-23.433665 -11.312768,-3.1673787 -20.602735,8.45735 -15.163898,18.974901 0.831914,1.608744 2.744414,3.59338 4.25,4.410303 3.571871,1.938076 10.570091,1.961842 14.270162,0.04846 z M 472.28994,136.5114 c -14.07017,-2.75811 -25.74991,-13.99211 -29.4933,-28.36774 -5.10947,-19.621728 3.62602,-39.108893 21.22993,-47.359846 5.11796,-2.398785 6.87252,-2.679685 16.71807,-2.676517 10.05815,0.0032 11.44636,0.238539 16.21308,2.748139 13.30794,7.006404 21.28692,19.906243 21.28692,34.41516 v 5.303834 l -30.25,0.26467 -30.25,0.26466 0.18225,2.70611 c 0.25832,3.8355 3.11153,9.43382 6.57124,12.89353 4.9772,4.9772 8.54435,6.3633 16.24651,6.31297 8.46769,-0.0553 13.67063,-2.40997 18.69755,-8.46173 l 3.42681,-4.12543 6.21218,1.22217 c 3.41669,0.6722 6.4446,1.59825 6.72868,2.05791 1.55347,2.51357 -8.1997,14.42388 -15.14413,18.49358 -4.37549,2.56421 -15.7546,5.43275 -20.92109,5.27396 -1.65,-0.0507 -5.00461,-0.48516 -7.4547,-0.96543 z m 28.99468,-49.768255 c -1.68337,-5.869541 -5.67194,-10.464504 -11.74032,-13.525225 -4.07203,-2.053817 -13.23268,-2.085977 -18.08178,-0.06348 -6.21448,2.591982 -13.21788,10.486459 -13.21788,14.899659 0,1.352438 2.79101,1.54966 21.93019,1.54966 h 21.9302 z m 188.00532,49.818385 c -7.13718,-1.47939 -14.43713,-5.60018 -19.48978,-11.00187 -18.56195,-19.84422 -12.78248,-53.49511 11.16444,-65.004869 3.56391,-1.712941 7.10708,-2.409795 13.92652,-2.738998 10.38797,-0.50147 16.35837,0.972565 23.54255,5.812428 l 4.31097,2.904233 0.31037,-3.464348 0.31036,-3.464348 h 7.93964 7.93963 v 38.04206 38.042072 l -7.75,-0.29207 -7.75,-0.29206 -0.31074,-3.75625 -0.31074,-3.75625 -4.18926,2.88196 c -7.90156,5.43581 -20.40399,8.00358 -29.64396,6.08831 z m 22.50675,-17.48421 c 7.29858,-4.51242 10.82526,-10.81365 11.29863,-20.187592 0.45408,-8.992142 -1.34838,-14.432303 -6.55962,-19.798144 -7.65497,-7.882068 -19.21316,-9.822565 -29.11526,-4.88814 -17.6371,8.788938 -17.43639,37.529146 0.3242,46.422116 6.32449,3.16676 17.59974,2.44097 24.05205,-1.54824 z m -375.64311,15.63006 c -10.50913,-3.36234 -19.05203,-10.91853 -23.80783,-21.05799 -2.31412,-4.93377 -2.59863,-6.75928 -2.57865,-16.545632 0.0206,-10.083474 0.26476,-11.498106 2.93057,-16.978193 3.33887,-6.863679 10.40905,-14.390472 16.37777,-17.435485 14.27953,-7.284876 32.23408,-6.380095 44.82698,2.258958 21.40147,14.681958 21.71124,48.555912 0.58659,64.144492 -9.69075,7.15112 -26.04514,9.54606 -38.33543,5.61385 z m 26.66201,-15.64178 c 20.5147,-12.68326 12.76418,-45.763238 -11.07786,-47.281384 -11.09912,-0.706739 -19.40692,3.856215 -23.95823,13.158765 -6.46707,13.218207 -1.7093,28.854399 10.68718,35.122919 4.53195,2.29168 6.28113,2.62265 12.37535,2.34166 5.80339,-0.26759 7.98641,-0.87689 11.97356,-3.34196 z M 217.24464,84.103758 v -51.5 h 8 8 v 22 22 h 2.75852 c 2.26163,0 6.71838,-3.96292 24.74148,-22 l 21.98295,-22 h 10.50131 10.50132 l -25.80309,25.817406 -25.80308,25.817406 27.06029,25.29041 c 14.88317,13.90973 27.0603,25.4669 27.0603,25.6826 0,0.2157 -4.8375,0.39154 -10.75,0.39076 l -10.75,-0.001 -23,-21.99478 c -18.72135,-17.903558 -23.46507,-21.949404 -25.5,-21.749003 l -2.5,0.246201 -0.2695,21.750002 -0.2695,21.75 h -7.9805 -7.9805 z m 191,-4 v -55.5 h 8 8 v 55.5 55.500002 h -8 -8 z m 172,0 v -55.5 h 8 8 v 31.5 31.5 h 2.59366 c 1.93918,0 6.46747,-3.541725 17.94526,-14.035587 l 15.3516,-14.035588 10.09486,0.285588 10.09486,0.285587 -19.04012,17.467047 c -10.47207,9.606877 -19.01233,17.931877 -18.97836,18.5 0.034,0.568124 6.89647,7.008915 15.25,14.312865 8.35353,7.30395 18.11324,15.94687 21.68824,19.2065 l 6.5,5.92659 -10.70601,0.0435 -10.706,0.0435 -17.77425,-16 c -11.93825,-10.74657 -18.51948,-16 -20.04399,-16 -2.26509,0 -2.26975,0.0328 -2.26975,16 v 16 h -8 -8 z m 204.29855,53.540482 c -9.07847,-5.53546 -8.12609,-19.10888 1.65009,-23.51732 11.61091,-5.23579 23.57245,6.11391 18.70953,17.75253 -2.99044,7.15713 -13.2922,10.07405 -20.35962,5.76479 z M 781.24464,87.744715 V 75.885672 l 8.46433,-0.52807 c 12.62082,-0.787386 18.23565,-4.923924 17.11597,-12.609615 -1.0783,-7.401579 -7.29086,-11.875773 -14.74193,-10.616922 -6.20395,1.048151 -9.63015,4.598001 -12.16951,12.608699 -0.47664,1.503619 -1.2732,1.484128 -9.84373,-0.240861 -14.28424,-2.874986 -13.82521,-2.703514 -13.82434,-5.164197 0.002,-4.455099 5.59584,-14.182941 10.89746,-18.949556 6.81414,-6.126503 14.25726,-8.944901 25.20003,-9.542197 21.85042,-1.192677 37.29495,10.738642 38.67442,29.877039 0.66497,9.225548 -1.68209,15.888396 -7.72583,21.932134 -4.32094,4.320937 -13.41737,8.951632 -17.58438,8.951632 -1.03957,0 -1.46249,1.156711 -1.46249,4 v 4 h -11.5 -11.5 z M 542.01978,45.044956 c -3.44793,-1.871122 -4.77514,-4.35062 -4.77514,-8.920911 0,-4.107665 3.20015,-8.030449 7.41388,-9.088028 6.23365,-1.564547 12.58612,3.022363 12.58612,9.088028 0,4.656144 -1.3536,7.094085 -4.97998,8.969363 -3.6322,1.878282 -6.7214,1.863672 -10.24488,-0.04845 z"
     id="path3724"
     inkscape:connector-curvature="0"
     inkscape:label="path3724" />
</svg>
