<?xml version="1.0" standalone="no"?>
<!DOCTYPE svg PUBLIC "-//W3C//DTD SVG 20010904//EN"
 "http://www.w3.org/TR/2001/REC-SVG-20010904/DTD/svg10.dtd">
<svg version="1.0" xmlns="http://www.w3.org/2000/svg"
 width="628.000000pt" height="628.000000pt" viewBox="0 0 628.000000 628.000000"
 preserveAspectRatio="xMidYMid meet">
<metadata>
Created by potrace 1.11, written by Peter Selinger 2001-2013
</metadata>
<g transform="translate(0.000000,628.000000) scale(0.100000,-0.100000)"
fill="#000000" stroke="none">
<path d="M1633 6266 c-35 -7 -63 -11 -63 -8 0 2 -6 0 -12 -5 -7 -6 -26 -13
-43 -17 -74 -18 -230 -100 -300 -158 -93 -76 -265 -274 -265 -303 0 -5 -6 -16
-13 -24 -17 -20 -57 -116 -63 -150 -3 -14 -7 -34 -10 -43 -11 -36 -21 -115
-26 -198 -2 -29 11 -195 17 -220 3 -14 8 -36 11 -50 15 -78 83 -248 127 -314
18 -27 65 -81 124 -141 l51 -53 -71 -41 c-104 -61 -109 -64 -144 -88 -17 -13
-36 -23 -41 -23 -6 0 -12 -3 -14 -7 -1 -5 -23 -24 -48 -43 -96 -74 -350 -339
-350 -365 0 -5 -25 -37 -48 -60 -6 -8 -12 -16 -12 -20 0 -4 -14 -27 -31 -51
-38 -56 -119 -225 -113 -236 3 -4 1 -8 -3 -8 -9 0 -51 -143 -58 -195 -2 -16
-6 -43 -9 -60 -8 -46 -17 -169 -21 -280 -3 -55 -5 -100 -5 -100 -6 0 -8 -195
-2 -196 40 -5 425 -2 428 3 4 7 13 115 19 248 6 132 18 222 49 355 48 207 204
454 361 570 22 17 42 33 45 37 9 11 220 119 220 112 0 -4 6 -1 14 5 15 13 156
62 156 55 0 -3 8 0 19 5 10 6 33 13 52 16 19 3 54 10 78 16 127 28 314 30 400
4 89 -27 121 -64 126 -150 9 -147 80 -312 210 -490 39 -53 78 -110 87 -127
l17 -32 -91 -59 c-50 -32 -101 -64 -114 -69 -13 -6 -24 -14 -24 -18 0 -4 -11
-12 -25 -18 -25 -12 -37 -20 -74 -52 -9 -8 -37 -32 -62 -52 -97 -78 -209 -206
-293 -333 -25 -38 -49 -74 -53 -80 -46 -60 -156 -346 -167 -435 -3 -25 -8 -56
-11 -70 -17 -88 -37 -518 -48 -1050 l-2 -115 220 0 220 0 2 75 c1 41 5 163 8
270 7 277 14 476 20 540 10 109 22 211 30 240 2 8 7 31 10 50 30 181 121 347
270 495 104 105 177 155 330 230 216 105 438 146 660 122 131 -14 177 -32 194
-76 14 -35 28 -98 35 -147 6 -51 56 -197 93 -273 42 -86 98 -163 169 -231 35
-34 64 -65 64 -68 0 -4 -12 -13 -27 -19 -16 -7 -64 -34 -108 -61 -44 -26 -91
-54 -105 -62 -14 -8 -27 -17 -30 -20 -3 -3 -32 -25 -65 -50 -54 -40 -227 -207
-265 -256 -75 -96 -113 -148 -147 -204 -53 -86 -105 -190 -95 -190 4 0 2 -4
-4 -8 -16 -10 -64 -156 -67 -203 -1 -21 -4 -39 -7 -39 -3 0 -6 -15 -7 -32 0
-18 -4 -73 -7 -122 -7 -107 -15 -414 -21 -778 l-4 -268 222 0 223 0 1 353 c0
332 8 591 17 647 3 14 7 45 10 70 27 208 105 359 279 540 130 136 283 236 447
293 153 53 208 61 395 61 136 0 187 -4 253 -19 12 -3 32 -7 44 -10 108 -23
266 -96 385 -176 106 -72 293 -262 293 -298 0 -6 4 -11 9 -11 11 0 129 -236
137 -275 29 -145 34 -197 39 -383 3 -92 5 -167 6 -167 0 0 2 -76 5 -170 4
-161 11 -399 13 -437 1 -17 18 -18 221 -18 l220 0 -5 223 c-20 869 -24 931
-75 1087 -30 94 -129 292 -195 390 -152 226 -352 412 -555 515 -84 43 -120 71
-120 93 0 9 24 47 53 86 117 156 195 305 227 431 12 47 18 109 18 190 1 365
-166 673 -468 859 -106 65 -176 93 -264 105 -38 6 -72 10 -75 9 -3 0 -124 0
-269 1 l-262 1 6 83 c17 222 -3 338 -86 510 -125 260 -409 487 -671 536 -65
12 -162 12 -469 -4 l-115 -6 0 143 c1 257 -42 421 -154 592 -87 134 -243 268
-395 340 -65 31 -164 64 -213 72 -21 3 -42 9 -48 12 -19 12 -271 10 -332 -2z
m292 -448 c28 -6 57 -14 65 -18 92 -43 124 -64 181 -120 166 -164 208 -425
101 -624 -68 -125 -191 -205 -357 -232 -115 -19 -302 3 -389 46 -83 40 -179
153 -213 253 -15 42 -19 56 -28 110 -7 38 -8 41 -6 47 1 3 3 37 5 75 2 39 11
87 19 108 9 20 14 37 12 37 -18 0 108 182 140 202 5 3 21 16 35 28 99 87 281
124 435 88z m1367 -1149 c113 -32 150 -53 238 -139 94 -93 143 -215 143 -360
-1 -127 -46 -238 -137 -330 -79 -80 -195 -146 -311 -175 -55 -13 -144 -14
-195 0 -82 22 -192 82 -250 137 -50 47 -120 142 -120 162 0 5 -6 22 -14 39
-57 129 -38 319 44 448 65 101 217 207 318 223 19 2 36 6 38 9 13 13 183 3
246 -14z m1306 -1113 c112 -26 221 -93 281 -171 17 -22 34 -44 39 -50 4 -5 16
-27 25 -47 52 -111 66 -196 52 -323 -23 -208 -192 -383 -416 -431 -30 -6 -167
-7 -194 0 -61 13 -84 22 -144 53 -130 67 -253 230 -294 393 -30 118 35 292
156 414 79 81 143 118 256 151 72 22 176 26 239 11z"/>
</g>
</svg>
